<svg xmlns="http://www.w3.org/2000/svg" viewBox="0 0 1024 1024"><rect width="100%" height="100%" fill="none"/><path fill="#1aacf0" fill-rule="evenodd" d="M691 84.697c-13.511 1.453-32.863 6.218-37.643 9.269-1.753 1.118-1.745 1.148.143.522 8.651-2.869 14.764-4.557 15.14-4.181.246.246-1.569 1.042-4.032 1.769-2.464.728-4.276 1.652-4.027 2.054.248.403-.075 1.057-.719 1.455-.731.452-.903.291-.457-.43 1.088-1.762.471-1.601-9.152 2.386-3.371 1.397-4.016 2.039-3.128 3.11.732.881.76 1.349.081 1.349-.572 0-1.276-.562-1.565-1.25-.374-.892-.846-.743-1.644.521-.616.974-1.529 1.518-2.029 1.209s-2.272.143-3.939 1.005c-6.627 3.427-2.517.351 5.221-3.908 4.538-2.497 7.837-4.548 7.332-4.559-5.317-.106-33.714 19.225-50.514 34.389-7.056 6.369-22.856 14.139-91.068 44.784-109.942 49.392-143.837 67.703-177.696 95.995-13.839 11.563-41.374 41.11-41.271 44.286.034 1.039 2.487-1.664 4.633-5.103 1.096-1.757 1.158-1.737 1.04.338-.069 1.214-.316 2.017-.548 1.784s-1.3.691-2.371 2.052-2.353 2.225-2.849 1.919c-1.1-.68-6.715 7.942-13.05 20.038-44.501 84.979 5.403 184.147 100.112 198.94 33.519 5.236 32 7.152 32-40.369 0-29.647-.33-43.071-1.059-43.071-.582 0-.795.427-.472.949 2.061 3.335-14.563 1.894-25.276-2.19-3.131-1.194-6.301-2.048-7.043-1.898-.743.15-1.054-.207-.691-.794.362-.587.182-1.123-.4-1.192s-1.472-.181-1.976-.25c-1.332-.182-2.583-1.614-2.583-2.958 0-.642-1.012-1.611-2.25-2.154s-2.25-1.582-2.25-2.309-1.322-2.982-2.937-5.013c-1.616-2.03-3.239-4.929-3.609-6.441-.369-1.512-.962-2.75-1.319-2.75-.83 0-3.135-7.339-3.135-9.984 0-1.109-.337-2.015-.75-2.014-1.704.003.437-27.406 2.656-34.002 3.958-11.764 11.079-23.351 21.062-34.275 2.768-3.028 5.032-6.005 5.032-6.615s.413-.997.918-.86c.506.138 3.099-1.793 5.764-4.29s7.09-6.078 9.832-7.959a437 437 0 0 0 9.486-6.723c6.19-4.545 6.188-4.543 10.059-6.658 10.115-5.525 12.299-6.596 12.675-6.219.228.228-3.332 2.492-7.91 5.032-27.423 15.215-49.703 35.987-60.138 56.067-20.256 38.978-3.246 84.348 32.273 86.083 6.541.32 6.541.32.541-.548-41.928-6.062-54.264-57.593-23.509-98.208 10.69-14.117 33.058-32.426 53.509-43.798 3.3-1.835 7.552-4.21 9.45-5.278 8.177-4.602 54.289-27.266 73.801-36.272 11.688-5.396 21.068-9.994 20.843-10.218-.224-.225-1.836.33-3.582 1.233-4.737 2.449-19.012 8.383-19.012 7.903 0-.23 3.488-1.99 7.75-3.912 4.263-1.923 9.519-4.4 11.681-5.506 2.568-1.314 4.156-1.647 4.58-.961.357.577 1.358.778 2.224.445 2.067-.793 3.347 4.582 1.785 7.499-.612 1.144-.864 2.482-.56 2.973.304.492.095 1.047-.464 1.233-.56.187-2.763 5.287-4.898 11.336-2.134 6.048-4.425 12.464-5.091 14.259s-.946 3.955-.621 4.801.227 1.315-.218 1.04c-.769-.475-4.34 8.153-4.711 11.379-.172 1.499-1.649 5.634-3.4 9.517-.496 1.1-1.677 4.148-2.624 6.772s-1.873 4.621-2.058 4.436c-.328-.328 18.315-54.728 22.519-65.708 2.127-5.556 2.763-8.762 1.192-6-.91 1.598-5.03 13.062-12.579 35-2.555 7.425-5.937 17.1-7.516 21.5-9.021 25.138-25.98 73.785-25.917 74.344.041.361.908-1.144 1.926-3.344 3.248-7.017 2.139-1.99-2.401 10.884-2.421 6.864-4.146 12.736-3.834 13.048.313.312.043.568-.598.568-.642 0-1.167.943-1.167 2.096 0 1.152-.643 3.29-1.43 4.75s-1.89 4.004-2.453 5.654-2.199 6.15-3.638 10c-5.978 16.001-7.344 20.5-6.228 20.5.622 0 .384.562-.529 1.25-1.542 1.161-7.57 16.55-15.069 38.465-1.734 5.069-3.481 9.231-3.882 9.25-.4.019.368-3.003 1.707-6.715 1.339-3.713 6.525-18 11.524-31.75a19421 19421 0 0 0 13.234-36.5c2.28-6.325 4.622-11.831 5.205-12.235.582-.404.748-.741.369-.75-.38-.008 1.083-4.985 3.25-11.06s3.911-11.588 3.877-12.25c-.087-1.644-1.144 1.035-8.401 21.295-9.07 25.322-27.162 74.666-43.813 119.5-7.967 21.45-14.789 39.997-15.16 41.215-.483 1.582-1.732 2.394-4.369 2.84C235.661 608.06 144.026 671.076 143.617 765c-.272 62.534 37.295 107.709 99.883 120.113 12.069 2.392 48.551 1.82 61.5-.964 67.745-14.564 118.361-62.078 161.55-151.649 10.17-21.091 13.594-29.043 29.449-68.384 12.647-31.384 12.647-31.384 27.574-36.642 36.166-12.737 87.693-38.999 85.016-43.33-.288-.466 2.499-3.252 6.194-6.19 9.263-7.368 9.757-7.715 8.85-6.204-1.295 2.155 3.921.056 5.591-2.25.399-.55.504 4.85.235 12-.27 7.15-.055 15.25.477 18 .531 2.75 1.149 6.577 1.372 8.505 2.253 19.444 21.102 46.781 33.204 48.156 1.727.196 2.883.866 2.738 1.589-.137.687.2 1.25.75 1.25s1-.52 1-1.156 1.013-.018 2.25 1.372c2.072 2.326 8.74 4.927 16.25 6.337 5.874 1.103 19.466 1.985 21.203 1.376 2.225-.781 5.297-.017 5.297 1.316 0 .656-3.957.815-11.25.45-9.421-.471-10.356-.397-5.75.454 62.656 11.576 142.284-57.249 202.424-174.962 4.42-8.652-16.162-26.246-34.612-29.587-3.588-.649-3.762-.538-6.401 4.116-46.954 82.805-86.59 128.586-113.438 131.02-21.505 1.95-18.344-21.154 16.318-119.236 2.526-7.15 11.559-32.8 20.073-57 19.088-54.258 29.845-83.967 52.136-144 8.129-21.892 34.53-91.351 42.507-111.83 3.391-8.707 5.902-16.095 5.579-16.417-.322-.323-.586.137-.586 1.021 0 2.182-1.19 2.756-4.076 1.966-2.378-.651-2.367-.676.576-1.333 1.65-.369-20.545-.724-49.321-.789-58.17-.131-53.644-.722-56.545 7.382-.984 2.75-2.193 5.9-2.686 7-2.768 6.173-4.988 13.627-4.361 14.642.402.65.291.901-.251.566-.535-.331-1.558 1.062-2.273 3.095-2.263 6.435-5.32 13.273-5.745 12.848-.225-.225 1.161-4.401 3.081-9.28 9.306-23.654 14.361-37.548 13.198-36.275-.706.772-4.316 9.504-8.021 19.404s-15.304 40.725-25.775 68.5c-22.312 59.188-25.989 69.042-44.591 119.5-33.265 90.228-37.881 101.047-50.976 119.48-18.825 26.499-49.669 48.854-91.219 66.113-6.316 2.624-11.651 4.605-11.854 4.402s1.964-6.81 4.815-14.682c8.361-23.088 14.054-38.929 29.041-80.813a33222 33222 0 0 1 31.678-88 55785 55785 0 0 0 23.837-66c41.057-114.167 51.793-133.115 87.017-153.58 1.772-1.029 1.661-1.734-2.362-15-9.442-31.138-14.064-45.627-14.754-46.256-.401-.365-.465.236-.143 1.336.675 2.306 4.809 15.718 10.171 33 7.608 24.523 7.962 25.859 6.946 26.198-9.869 3.289-28.986 21.004-38.637 35.802-8.332 12.777-19.106 35.789-25.876 55.274-1.198 3.451-2.345 6.108-2.547 5.906-.203-.202.346-2.351 1.218-4.774.873-2.423 1.735-5.105 1.916-5.96 4.414-20.859 30.076-63.092 46.001-75.707 7.294-5.779 12.328-9.239 13.44-9.239.458 0 1.451-.753 2.206-1.673 1.222-1.491 1.126-1.61-.879-1.094-1.239.319-2 .172-1.691-.326.308-.499 1.257-.907 2.108-.907 1.056 0 1.337-.549.885-1.729-.365-.95-1.568-5.113-2.673-9.25s-3.032-10.671-4.283-14.521c-2.54-7.823-7.475-23.665-8.566-27.5-.821-2.887-13.006-3.404-23.111-.98-2.764.663-5.258.974-5.541.69-.887-.887 9.74-2.809 18.936-3.425 5.288-.353 8.288-.922 7.5-1.422-.722-.458-1.538-.767-1.813-.688s-2.075.314-4 .522m-63.138 23.956c-8.845 6.026-18.974 14.199-29.352 23.684-1.105 1.01-3.741 2.729-5.857 3.82s-3.602 2.227-3.303 2.527c.3.299 2.256-.517 4.347-1.814s4.028-2.364 4.303-2.371 2.3-1.946 4.5-4.31 4.9-4.428 6-4.588 2-.711 2-1.223c0-1.406 7.067-7.385 15.75-13.325 7.005-4.793 8.537-6.053 7.362-6.053-.213 0-2.801 1.644-5.75 3.653M577 144.059c-.825.518-4.987 2.541-9.25 4.495-7.216 3.309-10.609 5.49-5.5 3.536 3.025-1.157 16.958-7.964 17.585-8.591.848-.849-1.252-.434-2.835.56m299.125 17.566c-1.192 3.116-1.999 5.834-1.793 6.04s1.351-2.174 2.543-5.29 1.999-5.834 1.793-6.04-1.351 2.174-2.543 5.29M528.5 166.612c-7.7 3.576-15.706 7.208-17.791 8.07s-3.601 1.759-3.367 1.993c.385.385 8.244-2.989 26.933-11.566 3.726-1.71 7.187-3.109 7.691-3.109s1.194-.45 1.534-1c1.05-1.699-.549-1.101-15 5.612m339.704 15.069c-8.664 22.248-12.37 32.487-11.922 32.934.239.239 1.909-3.514 3.711-8.34 1.803-4.826 5.701-15.029 8.662-22.672s5.194-14.088 4.962-14.32-2.668 5.347-5.413 12.398m-378.581 2.332c-8.182 3.799-15.157 7.222-15.5 7.606-.343.385.277.338 1.377-.104s2.788-.835 3.75-.874c.962-.038 1.75-.471 1.75-.962s.774-.596 1.72-.233c.945.363 1.39.331.988-.071-1.039-1.039 13.114-7.592 14.58-6.75.666.382.856.305.42-.173-.435-.478 1.14-1.88 3.5-3.115 8.79-4.601 1.803-2.005-12.585 4.676M470 192.992c-.825.529-7.35 3.551-14.5 6.717-26.855 11.889-73.585 35.872-77 39.517-1.251 1.335-.913 1.166 8.262-4.134 3.995-2.307 7.777-3.877 8.405-3.489.649.401.87.266.512-.313-.352-.57 3.332-3.059 8.373-5.654 9.145-4.71 12.013-5.756 8.507-3.104-1.068.807-1.518 1.454-1 1.436 1.529-.051 4.465-2.611 3.78-3.295-.346-.347 3.373-2.476 8.266-4.733s11.096-5.179 13.786-6.494 5.277-2.151 5.75-1.859.859.069.859-.497c0-.565.788-.774 1.75-.464 1.142.367 1.337.262.561-.303-.78-.568 3.012-2.725 11-6.26 6.704-2.967 12.848-5.995 13.653-6.729 1.702-1.551 1.2-1.729-.964-.342M753.655 203.5c-.844 2.475-1.111 4.5-.594 4.5.516 0 .939-.927.939-2.059s.337-1.852.75-1.598c.413.253.798-.845.856-2.441.144-3.92-.155-3.675-1.951 1.598m-5.295 14.256c-1.727 4.809-6.14 16.556-9.807 26.103s-6.484 17.543-6.26 17.767 1.9-3.537 3.724-8.359c1.823-4.822 4.141-10.655 5.149-12.962s1.834-4.613 1.834-5.123c0-.843 2.345-6.748 5.235-13.182 1.211-2.697 1.447-3.426 1.64-5.059.069-.582.533-.807 1.032-.499.498.309.683-.294.41-1.338s.009-2.846.628-4.002.772-2.099.34-2.096-2.198 3.941-3.925 8.75m106.217.119c-.298.482-3.178 7.903-6.402 16.491-3.223 8.588-6.228 15.282-6.678 14.875s-.517-.216-.15.425.201 2.391-.368 3.889-.851 2.907-.625 3.132 2.469-5.125 4.987-11.889a4244 4244 0 0 1 7.517-20.048c2.649-6.982 3.235-9.328 1.719-6.875m-484.099 25.454c-20.272 12.799-38.241 26.585-52.34 40.158-9.244 8.898-22.929 24.542-21.417 24.482.429-.017 2.308-2.06 4.177-4.541 7.447-9.883 31.609-32.851 33.397-31.746.557.345.768.22.468-.277-1.002-1.661 29.925-24.405 33.185-24.405.578 0 1.052-.367 1.052-.816s1.8-1.827 4-3.064c3.771-2.119 4.948-3.22 3.25-3.041-.413.044-3.01 1.507-5.772 3.25m276.902 2.278c-.367 1.041-1.997 5.411-3.622 9.711-1.626 4.3-2.758 8.015-2.517 8.256s2.066-3.934 4.055-9.278c1.99-5.344 3.422-9.911 3.184-10.149s-.733.419-1.1 1.46m190.822 15.111c-1.598 4.164-2.396 7.282-1.863 7.282.626 0 3.76-9.234 3.293-9.702-.2-.199-.843.89-1.43 2.42m-110.113 11.036a2486 2486 0 0 0-5.788 15.746c-1.396 3.85-2.915 7.9-3.377 9-3.171 7.563-10.858 28.899-10.53 29.228.222.221 2.509-5.14 5.083-11.913s5.329-13.812 6.122-15.641c.792-1.829 2.831-7.454 4.531-12.5s3.663-10.524 4.363-12.174c2.684-6.328 3.759-9.581 3.312-10.028-.255-.256-1.927 3.471-3.716 8.282m-88.556-5.647c-7.931 21.494-15.525 43.235-15.211 43.549.225.225 1.888-3.768 3.696-8.874 1.808-5.105 5.478-15.085 8.157-22.177 2.678-7.092 4.645-13.118 4.371-13.393-.275-.274-.73.129-1.013.895m-139.021 2.723c-.297.772-1.351 1.184-2.357.921-1.104-.289-1.822.06-1.822.886 0 1.781.35 1.711 5.667-1.142 3.921-2.104 4.149-2.392 1.774-2.239-1.499.097-2.967.805-3.262 1.574m332.545 5.901c-1.231 3.173-2.885 7.569-3.675 9.769s-1.848 4.9-2.352 6c-2.564 5.597-19.153 52.71-18.714 53.149.186.187 3.409-8.096 7.162-18.405a4986 4986 0 0 1 13.712-37.121c3.789-10.107 6.713-18.553 6.498-18.768-.215-.216-1.399 2.204-2.631 5.376m-344.534-.159c-2.738 1.357-5.649 2.21-6.47 1.895s-1.165-.246-.765.154-7.714 4.966-18.031 10.146-19.204 9.846-19.75 10.369c-.887.849 50.395-23.851 51.41-24.762 1.203-1.08-2.008.024-6.394 2.198M439.232 298c-.687 1.1-1.92 2-2.74 2s-1.492.498-1.492 1.107-.675.848-1.5.531c-.931-.357-1.5.006-1.5.956 0 1.219 1.003.985 4.924-1.149 3.192-1.737 4.737-3.166 4.393-4.062-.669-1.742-.599-1.762-2.085.617m180.933 21.261c-1.754 4.532-3.155 8.914-3.112 9.739.044.825 1.637-2.725 3.541-7.888 1.905-5.164 3.305-9.546 3.112-9.739s-1.786 3.357-3.541 7.888m-335.251 3.989c-54.975 85.003-8.139 193.048 90.935 209.772 20.413 3.446 32.186 2.794 31.991-1.772-.16-3.75-.16-3.75-.574-.359-1.033 8.466-49.539.08-73.266-12.667-11.98-6.436-17.353-10.355-15.766-11.499.906-.654.787-.761-.419-.376-.927.296-1.827.226-2-.155-.173-.382-2.248-2.007-4.611-3.612-11.216-7.618-34.111-36.126-31.414-39.116.39-.432.148-.463-.54-.067-.687.395-1.25.28-1.25-.257 0-.536.337-1.164.75-1.395.413-.23.252-.307-.356-.17-4.289.968-13.946-32.162-14.888-51.074-.324-6.506-.755-12.097-.958-12.425-1.378-2.23 3.95-33.506 5.54-32.523.489.302.6-.205.246-1.127-.39-1.015-.028-2.02.919-2.549.939-.526 1.354-1.665 1.041-2.861-1.104-4.225 16.921-41.47 19.043-39.348.365.365.663-.087.663-1.003 0-2.737-.842-1.978-5.086 4.583m420.1 9.976c-1.249 3.451-6.512 17.688-11.695 31.639-5.183 13.95-9.233 25.554-9.002 25.786.232.231 1.354-1.958 2.494-4.865 3.328-8.492 14.903-40.054 15.691-42.786.396-1.375 1.301-3.85 2.01-5.5 1.904-4.427 3.549-9.772 3.135-10.186-.199-.199-1.384 2.461-2.633 5.912m-91.038 3.455c-1.22 3.2-4.601 12.569-7.514 20.819a2801 2801 0 0 1-10.45 29c-2.834 7.7-7.308 20.075-9.94 27.5-9.881 27.868-16.393 45.516-16.973 46-.329.275-.682 1.625-.783 3-.244 3.304 1.571-.771 6.681-15l11.311-31.5c4.146-11.55 9.419-26.175 11.718-32.5s6.119-16.9 8.491-23.5a2596 2596 0 0 1 7.423-20.39c1.712-4.615 2.92-8.583 2.684-8.819s-1.427 2.19-2.648 5.39m-104.897-3.659c-.043.288-2.586 7.713-5.649 16.5-3.064 8.788-6.886 19.768-8.495 24.4s-2.712 8.634-2.453 8.893.672-.156.917-.922c.246-.766 1.4-4.093 2.565-7.393s3.415-9.825 5-14.5a788 788 0 0 1 5.99-16.905c1.71-4.622 2.906-8.897 2.657-9.5s-.489-.86-.532-.573m293.091 25.672a696 696 0 0 1-4.718 12.806c-1.467 3.85-4.161 11.275-5.989 16.5-1.827 5.225-4.968 14-6.979 19.5-7.105 19.426-16.503 47.814-15.997 48.32.282.283.513.284.513.004 0-.708 6.451-19.334 15.524-44.824a11007 11007 0 0 0 11.517-32.5c2.126-6.05 5.025-14.098 6.444-17.884 1.419-3.787 2.39-7.074 2.158-7.306s-1.345 2.191-2.473 5.384M674.513 415.77c-4.873 13.051-10.143 26.607-11.709 30.124-1.567 3.517-2.651 6.593-2.407 6.836.453.454 5.751-10.47 7.026-14.489.392-1.232 1.089-2.241 1.551-2.241s.598-.919.305-2.043c-.365-1.394-.098-1.949.843-1.75.925.197 1.39-.698 1.414-2.717.032-2.651 1.713-7.753 5.926-17.99 2.819-6.849 6.745-18.626 6.343-19.028-.237-.238-4.419 10.246-9.292 23.298m-16.385 40.393c-.51 1.343-3.012 5.966-5.559 10.274-2.547 4.309-4.426 8.04-4.174 8.291s1.185-.949 2.074-2.668c.941-1.82 2.081-2.838 2.728-2.438.661.408.832.233.421-.43-.379-.615.355-2.822 1.631-4.905 3.04-4.958 4.954-9.418 4.316-10.055-.28-.28-.927.589-1.437 1.931m105.356 11.529c-8.425 24.4-9.481 27.616-9.425 28.688.032.616 3.189-7.835 7.015-18.781 3.827-10.945 6.774-20.084 6.55-20.308s-2.087 4.456-4.14 10.401M857 473.241c-8.239 14.981-22.709 38.497-32.16 52.266-13.564 19.763-15.365 23.55-3.087 6.493 2.573-3.575 5.144-6.831 5.713-7.235s.666-.741.216-.75c-.687-.013 1.41-3.483 4.54-7.515 1.621-2.087 7.778-11.722 7.778-12.17 0-.258 1.35-2.432 3-4.83s3-4.603 3-4.899 2.025-3.669 4.5-7.495 4.5-7.402 4.5-7.948c0-.545.337-1.141.75-1.325s1.862-2.743 3.22-5.688c2.47-5.355 2.47-5.355 6.869-4.86 8.647.975 23.862 10.82 30.911 20.002 1.604 2.09 1.679 6.096.095 5.118-.73-.452-.882-.274-.413.484.407.659.314 1.741-.206 2.405-.521.663-2.902 5.031-5.292 9.706-2.391 4.675-6.278 11.542-8.64 15.26S878 527.294 878 527.629c0 .616-11.032 18.447-11.985 19.371-.283.275-1.367 2.075-2.409 4s-2.668 4.4-3.614 5.5-4.517 6.198-7.935 11.329-6.967 10.095-7.886 11.033-3.604 4.285-5.967 7.439c-6.477 8.647-19.377 23.193-20.613 23.244-.6.025-1.009.495-.91 1.044.169.93-13.092 14.398-14.185 14.407a.496.496 0 0 0-.481.521c.018.612-6.596 6.513-7.611 6.791-.384.106-2.306 1.665-4.271 3.465s-4.126 3.06-4.802 2.8c-.676-.259-1.027.068-.78.728.459 1.224-6.283 6.403-7.745 5.949-.443-.138-.806.122-.806.577s-3.58 2.799-7.956 5.211c-4.375 2.411-7.783 4.556-7.573 4.766.941.941 19.451-10.329 27.851-16.957 36.266-28.617 67.334-68.779 104.881-135.582 7.762-13.81 7.751-13.379.531-21.156-7.045-7.589-25.053-17.346-31.522-17.08-.392.016-2.737 3.712-5.212 8.212m-450.672-.741c.005 3.85.185 5.302.402 3.228.216-2.075.213-5.225-.008-7s-.398-.078-.394 3.772m157.3 4.233c-2.034 5.906-3.291 10.295-2.792 9.753 1.272-1.382 7.559-19.424 6.973-20.011-.265-.264-2.146 4.352-4.181 10.258m77.872 6.397c-14.93 20.446-45.344 43.74-73.25 56.102-15.489 6.86-19.558 8.851-16.973 8.304 1.527-.323 5.325-1.753 8.44-3.178s6.208-2.671 6.873-2.768c.664-.098 1.816-.646 2.559-1.219 1.22-.94 11.66-6.439 19.351-10.193 1.65-.805 4.013-2.378 5.25-3.495 1.237-1.118 2.25-1.696 2.25-1.286s.617.151 1.37-.576c2.47-2.381 17.476-13.013 18.137-12.85.354.088 1.559-.882 2.678-2.155 1.118-1.274 2.546-2.166 3.174-1.983.627.184.836.029.464-.344-.373-.372 1.652-2.733 4.5-5.246s5.327-4.946 5.51-5.406c.184-.46.916-.837 1.628-.837s1.854-.675 2.539-1.5c.997-1.201.988-1.5-.044-1.5-.709 0-.952-.337-.539-.75s1.232-.75 1.821-.75 1.196-.846 1.347-1.881c.324-2.204 2.015-4.1 3.715-4.164.66-.025 1.083-.6.941-1.278s.417-1.492 1.244-1.81c.827-.317 1.255-.979.95-1.472-.304-.492.261-.902 1.256-.91 1.403-.012 1.503-.21.446-.879-1.109-.703-1.118-.946-.049-1.302.722-.241.886-.682.363-.98s-3.201 2.54-5.951 6.306m-83.669 9.529c-.885 2.663-3.033 8.666-4.773 13.341s-5.439 15.025-8.219 23c-2.781 7.975-5.388 14.95-5.792 15.5-1.256 1.705-2.022 4.5-1.235 4.5.95 0 1.379-1.104 12.785-32.9 5.208-14.52 9.329-26.823 9.156-27.34-.172-.518-1.037 1.237-1.922 3.899m194.406 7.005c-.508 1.01-1.937 5.211-3.175 9.336s-2.626 8.4-3.084 9.5c-.817 1.963-5.868 17.675-9.805 30.5-6.753 22.003-8.991 39.503-5.846 45.73.769 1.524 1.198 3.333.952 4.02-.266.746.406 1.25 1.668 1.25 2.113 0 2.113 0-.137-3.043-6.269-8.48-1.74-31.501 17.107-86.957 3.623-10.663 4.539-14.739 2.32-10.336M445.007 511.5c-1.279 3.85-4.305 12.175-6.725 18.5a2552 2552 0 0 0-7.919 21 1472 1472 0 0 1-5.954 15.792c-1.339 3.461-2.567 7.162-2.729 8.225s-.494 2.13-.738 2.372c-.37.37-22.503 4.704-38.942 7.628-29.452 5.237-107.925 29.153-120 36.572-2.5 1.536-2.5 1.536 0 .877 1.375-.363 3.254-.713 4.177-.777s1.484-.429 1.249-.809c-.616-.996 16.645-7.067 18.295-6.434.76.292 1.149.153.864-.308-.285-.462 1.379-1.438 3.698-2.169s4.667-1.643 5.217-2.025c1.895-1.319 11.872-3.832 12.839-3.234.534.329.684.136.334-.431-.648-1.048 6.254-2.749 9.577-2.359.962.113 1.75-.236 1.75-.777 0-1.315 9.685-4.478 11.537-3.767.805.309 1.463.125 1.463-.407 0-.533.703-.969 1.562-.969s3.787-.728 6.506-1.617c4.002-1.309 5.234-1.377 6.461-.359 1.279 1.062 1.409.977.825-.543-.566-1.477-.299-1.7 1.479-1.235 1.193.312 1.955.219 1.692-.206-.551-.891 10.294-3.27 11.503-2.523.44.273.991-.07 1.224-.761.324-.962.856-.905 2.277.244 1.02.825 1.528.955 1.128.288-1.133-1.886 5.776-3.678 32.15-8.338 6.219-1.099 11.731-1.735 12.25-1.415s.943.054.943-.593c0-.714.98-.988 2.5-.697 1.375.263 2.5.064 2.5-.443 0-.506.385-.682.855-.392 1.168.722 5.34-3.859 5.052-5.548-.369-2.162 1.159-6.672 2.691-7.943.771-.64 1.402-2.477 1.402-4.081s.843-4.587 1.873-6.628c1.03-2.04 2.89-6.748 4.135-10.46 1.51-4.507 2.799-6.776 3.877-6.829.907-.044 1.101-.289.444-.557-1.198-.489-.468-2.943 6.627-22.294 1.7-4.636 2.93-8.911 2.733-9.5-.197-.588-1.404 2.08-2.682 5.93m357.962 44.25c-25.991 32.803-49.997 49.323-65.043 44.761-2.029-.615-2.213-.513-1.123.627 1.893 1.978 10.693 1.469 17.102-.99 2.973-1.141 5.786-1.839 6.25-1.552s.845.057.845-.511 1.462-1.789 3.25-2.713 3.7-2.219 4.25-2.879 1.952-1.829 3.114-2.597c7.281-4.808 28.413-27.645 38.198-41.281 5.947-8.287 2.662-4.862-6.843 7.135m-187.173 22.492c-3.687 2.851-6.527 5.361-6.311 5.577.449.449 12.116-8.365 13.03-9.844.987-1.597.297-1.159-6.719 4.267m11.21 5.841c.02 38.689 13.209 63.742 40.494 76.921 8.444 4.079 19.584 7.401 22.352 6.666 1.146-.305.978-.473-.55-.554-7.103-.375-25.422-7.728-23.198-9.311 1.066-.759.952-.849-.484-.381-4.763 1.553-21.306-13.627-27.415-25.155-6.721-12.683-10.651-31.846-10.035-48.936.181-5.041-.007-9.504-.42-9.916s-.747 4.387-.744 10.666m-27.594 4.691c-3.899 2.599-9.192 6.033-11.764 7.629-2.571 1.597-4.481 3.098-4.243 3.335.493.493 23.595-14.394 23.595-15.205 0-.816-.033-.797-7.588 4.241m-24.765 14.688c-3.769 1.839-7.369 3.884-8 4.544-.631.661 2.565-.651 7.103-2.914s8.25-4.334 8.25-4.603c0-.649.424-.821-7.353 2.973m-15.435 7.717c-2.358 1.143-4.115 2.251-3.904 2.462.457.457 9.692-3.533 9.692-4.188 0-.814-1.43-.387-5.788 1.726M532.5 622.067c-2.75 1.085-9.117 3.341-14.149 5.012-11.907 3.956-11.885 3.923-25.402 38.921-1.806 4.675-6.583 16.307-10.616 25.848S475 709.377 475 709.599c0 1.169-17.772 37.047-24.049 48.55-23.082 42.298-52.681 76.886-83.531 97.61-8.304 5.579-19.039 11.289-19.797 10.531-.343-.343-.623-.171-.623.383 0 1.199-2.425 2.4-15 7.426-9.977 3.987-11.133 5.22-1.907 2.033C372.26 861.567 418.06 819.308 446.2 769c1.385-2.475 3.537-6.3 4.783-8.5 3.736-6.598 21.539-42.515 24.535-49.5 9.627-22.446 12.767-30.064 23.863-57.895 4.473-11.218 8.804-20.778 9.626-21.245s8.243-3.305 16.493-6.306 14.325-5.458 13.5-5.459-3.75.886-6.5 1.972M243 630.31c-24.139 12.109-52.459 32.15-57.414 40.627-.502.86 1.318-.462 4.045-2.937 12.736-11.559 20.211-17.216 21.609-16.352.601.372.78.193.408-.408-.792-1.282 6.21-5.841 8.352-5.438 1.195.224 1.229.098.166-.621-1.671-1.131 1.338-2.575 3.174-1.524.638.365.829.298.423-.15-1.033-1.142 5.392-5.69 7.33-5.189.877.227 2.11-.414 2.742-1.425.723-1.159 1.765-1.6 2.82-1.195 1.087.417 1.432.252.985-.471-.864-1.399 13.936-8.585 15.652-7.6.664.382.853.304.42-.171-.433-.476.692-1.654 2.5-2.619 1.808-.964 2.838-1.764 2.288-1.777-.55-.014-7.525 3.249-15.5 7.25m137.5 26.632c-1.647.665-5.871 1.797-13 3.484-5.032 1.192-9.604 2.804-9.173 3.235.292.291 4.619-.674 9.616-2.144 4.998-1.471 9.604-2.501 10.237-2.29.632.21-2.862 1.43-7.765 2.71-93.942 24.522-145.425 65.648-135.413 108.172 9.895 42.024 65.84 31.356 103.646-19.765C355.299 727.827 387 667.489 387 658.311c0-.221-1.687-.155-3.75.146-3.75.548-3.75.548.25-.85 3.185-1.113 3.491-1.405 1.5-1.434-1.375-.021-3.4.325-4.5.769m371.5 1.569c-3.025 1.28-7.3 3.047-9.5 3.926-4 1.598-4 1.598-.5.967 1.925-.348 6.65-2.117 10.5-3.931 8.028-3.783 7.692-4.428-.5-.962m-364.271 1.696c-3.921 9.791-4.575 11.793-3.857 11.793.863 0 5.354-12.108 4.724-12.737-.192-.192-.582.233-.867.944M348 666.134c-4.007 2.026-2.176 2.319 2.942.47 2.141-.773 2.896-1.431 2-1.741-.793-.274-3.017.298-4.942 1.271m382.5-1.047c-2.2.466-6.25 1.291-9 1.834-4.78.943-4.699.962 1.838.443 3.761-.298 8.711-1.133 11-1.854 4.653-1.467 2.311-1.725-3.838-.423m-388.289 2.451c-.71.804-2.397 1.462-3.75 1.462s-2.461.43-2.461.955c0 .75-4.126 2.047-8 2.515-.275.033-1.062.418-1.75.854-.687.437-1.77.473-2.405.081-.673-.417-.884-.277-.506.334.36.584-.473 1.329-1.883 1.683-1.391.349-5.325 1.91-8.743 3.469-3.417 1.56-7.338 3.18-8.713 3.602-3.258.998-12 5.397-12 6.037 0 .273 1.688-.244 3.75-1.15 14.584-6.405 30.205-12.654 38.5-15.402 6.034-1.999 9.75-3.754 9.75-4.604 0-1.69-.167-1.675-1.789.164m-162.852 9.712c-6.262 6.832-13.071 16.118-17.964 24.5-1.486 2.545-1.485 2.601.018.75.894-1.1 2.291-2.793 3.106-3.761.815-.969 1.481-2.009 1.481-2.31 0-1.431 6.829-9.276 7.526-8.647.437.395.513.224.169-.38s1.844-4.091 4.862-7.75c6.215-7.535 6.621-8.75.802-2.402m201.201.504c-1.066 2.61-4.425 9.921-7.462 16.246-6.955 14.481-6.739 13.904-4.224 11.292 1.169-1.215 2.126-2.661 2.126-3.214s2.455-6.151 5.456-12.441c4.942-10.359 7.361-16.643 6.402-16.633-.197.002-1.231 2.139-2.298 4.75M286.5 689c-.34.55-.254 1.005.191 1.012s-.991 1.052-3.191 2.322c-22.126 12.781-38.499 28.673-45.822 44.479-1.312 2.831-2.645 4.887-2.964 4.568s-.308.457.024 1.723c.602 2.302.602 2.302 1.598-.151 7.47-18.393 21.543-34.047 40.795-45.379 13.316-7.837 14.784-8.82 11.994-8.031-1.616.456-2.157.317-1.691-.436.376-.609.459-1.107.184-1.107s-.778.45-1.118 1m-130.346 22.817C152.703 719.305 152.52 720 154 720c.55 0 1-.702 1-1.559s.408-1.307.907-.999c.498.309.686-.284.416-1.316s.478-3.776 1.663-6.098c1.184-2.322 1.966-4.409 1.738-4.638-.229-.228-1.835 2.664-3.57 6.427m206.919 2.365c-2.11 4.269-2.467 5.507-1.099 3.818a508 508 0 0 1 3.065-3.75c.572-.687.781-1.25.465-1.25s-.072-.939.542-2.086.899-2.302.634-2.568c-.266-.265-1.888 2.361-3.607 5.836m-212.389 10.651c-13.043 32.598-5.455 84.064 16.759 113.667 15.602 20.791 49.295 42.973 64.472 42.445.872-.03-2.465-1.397-7.415-3.036-18.294-6.059-44-22.058-44-27.385 0-.563-.605-1.024-1.345-1.024-1.655 0-6.232-5.567-5.521-6.717.283-.458-.019-.709-.671-.558-1.992.462-12.952-15.434-13.236-19.195-.078-1.04-.575-1.624-1.105-1.297-.557.345-.685-.127-.303-1.121.391-1.019.257-1.468-.33-1.105-1.285.794-1.277-.761.011-2.307.725-.87.672-.927-.193-.207-.859.715-1.58.084-2.573-2.25-3.039-7.142-7.137-20.663-7.674-25.314-.312-2.711-.806-6.054-1.097-7.429-2.538-11.987.984-46.424 6.059-59.25.38-.962.468-1.75.194-1.75-.275 0-1.189 1.725-2.032 3.833m198.364 12.417c-21.965 33.574-42.886 51.698-66.709 57.791-25.226 6.452-44.592-4.238-48.987-27.041-1.253-6.5-1.253-6.5-.974-.5.154 3.3 1.05 7.476 1.992 9.279.941 1.804 1.396 3.829 1.011 4.5-.386.672-.345.899.091.505.987-.89 5.128 4.223 4.751 5.865-.152.66.186 1.486.75 1.835s1.027.102 1.027-.547c0-.838.475-.788 1.633.173 1.479 1.227 1.408 1.423-.75 2.075-2.383.72-2.383.72.117.559 1.375-.089 5.06 1.058 8.188 2.547s6.643 2.709 7.809 2.709c1.365 0 1.863.417 1.398 1.17-.486.787-.178.961.941.531.989-.379 1.67-.144 1.679.58.012.932.203.924.81-.032.531-.837 3.098-1.193 7.735-1.073 3.817.098 7.84-.292 8.94-.867s3.8-1.611 6-2.302c8.591-2.698 26.756-13.214 29.5-17.077.275-.387 2.075-1.603 4-2.701s3.398-2.468 3.273-3.044c-.125-.575 1-2.092 2.5-3.371 4.248-3.622 11.316-12.382 18.811-23.314 7.859-11.464 8.885-12.669 9.957-11.702.429.386.444.12.033-.592-.41-.711-.327-1.836.185-2.5.971-1.258 2.373-4.706 1.914-4.706-.146 0-3.577 5.063-7.625 11.25m-28.615 140.69c-1.178 1.144-10.763 3.251-15.588 3.427-2.009.073-3.472.428-3.249.788 1.491 2.412-47.696 3.344-55.596 1.053-4.309-1.249-12.616-2.49-11.904-1.779 3.337 3.338 41.733 5.721 58.387 3.624 14.932-1.879 30.921-5.982 29.367-7.536-.266-.266-.903-.076-1.417.423"/></svg>